<?xml version="1.0" standalone="no"?>
<!DOCTYPE svg PUBLIC "-//W3C//DTD SVG 20010904//EN"
 "http://www.w3.org/TR/2001/REC-SVG-20010904/DTD/svg10.dtd">
<svg version="1.0" xmlns="http://www.w3.org/2000/svg"
 width="1037.000000pt" height="1425.985316pt" viewBox="0 0 1037.000000 1425.985316"
 preserveAspectRatio="xMidYMid meet">
<metadata>
Created by potrace 1.12, written by Peter Selinger 2001-2015
</metadata>
<g transform="translate(-231.000000,1460.532006) scale(0.100000,-0.100000)"
fill="#000000" stroke="none">
<path d="M7226 14600 c-670 -44 -1214 -227 -1650 -554 -334 -251 -584 -572
-726 -931 -44 -110 -96 -320 -110 -440 -6 -55 -14 -115 -16 -132 l-5 -33 -231
0 -231 0 -960 -382 c-854 -340 -960 -385 -973 -410 -12 -23 -14 -688 -14
-4667 l0 -4640 22 -26 c18 -20 584 -255 2423 -1006 1320 -540 2443 -992 2495
-1007 83 -23 114 -26 245 -27 122 0 166 4 237 22 121 31 4907 1986 4931 2014
16 20 17 258 17 4679 l0 4659 -24 19 c-13 10 -442 187 -953 393 l-928 374
-250 5 -249 5 -13 120 c-47 471 -262 895 -632 1247 -418 398 -965 629 -1666
703 -173 18 -566 26 -739 15z m579 -256 c158 -24 281 -60 437 -128 137 -59
312 -190 452 -337 220 -232 380 -545 460 -900 29 -129 59 -366 54 -426 l-3
-38 -296 -3 c-283 -2 -297 -3 -315 -23 -26 -29 -24 -87 5 -110 22 -18 62 -19
1067 -19 l1044 0 897 -361 c494 -199 904 -366 911 -371 9 -8 12 -935 12 -4573
0 -3638 -3 -4565 -12 -4572 -22 -18 -4740 -1940 -4803 -1958 -130 -35 -339
-30 -470 12 -27 9 -1096 443 -2375 965 -1279 523 -2342 957 -2363 965 l-37 15
0 4573 0 4574 908 363 907 363 1010 5 c556 3 1011 6 1013 8 2 1 9 16 16 34 14
33 6 80 -17 96 -7 4 -127 9 -267 12 l-255 5 2 109 c3 272 84 606 207 860 112
231 282 443 465 582 102 76 288 170 421 213 117 36 284 69 416 81 129 11 383
4 509 -16z"/>
<path d="M4242 10633 l3 -198 945 -5 c823 -4 934 -7 857 -18 -163 -24 -311
-81 -432 -167 -154 -109 -253 -274 -308 -510 -21 -90 -21 -92 -27 -2905 -6
-2546 -8 -2824 -23 -2905 -59 -328 -188 -477 -467 -542 -43 -10 -147 -17 -305
-22 l-240 -6 0 -200 0 -200 3253 -3 3252 -2 0 575 0 575 -203 0 -203 0 -61
-93 c-244 -372 -626 -584 -1152 -637 -67 -6 -655 -10 -1700 -9 -1581 1 -1595
1 -1502 20 407 80 622 284 714 674 l22 90 2 3143 3 3143 1323 -3 c1306 -4
1323 -4 1442 -25 142 -26 271 -62 369 -104 212 -90 384 -250 482 -451 l28 -58
218 0 218 0 0 520 0 520 -3255 0 -3255 0 2 -197z"/>
<path d="M8439 7667 c-59 -304 -305 -509 -719 -600 -158 -35 -274 -48 -485
-56 l-180 -6 -3 -101 -3 -101 158 -7 c384 -18 636 -70 851 -178 209 -105 330
-265 378 -500 l19 -88 202 0 203 0 0 860 0 860 -202 0 -203 0 -16 -83z"/>
</g>
</svg>
